<svg xmlns="http://www.w3.org/2000/svg" xmlns:xlink="http://www.w3.org/1999/xlink" width="25" height="25" enable-background="new" viewBox="0 0 6.615 6.615"><defs><linearGradient id="b"><stop offset="0" stop-color="#cdd6db"/><stop offset="1" stop-color="#d2d5d6"/></linearGradient><linearGradient id="a"><stop offset="0" stop-color="#fdbb32"/><stop offset="1" stop-color="#ec8d2e"/></linearGradient><linearGradient id="c"><stop offset="0" stop-color="#1fa9de"/><stop offset="1" stop-color="#02578c"/></linearGradient><linearGradient id="d" x1=".529" x2="6.086" y1="42.201" y2="42.201" gradientUnits="userSpaceOnUse" xlink:href="#a"/><linearGradient id="f" x1="1.059" x2="5.568" y1="42.2" y2="42.2" gradientUnits="userSpaceOnUse" xlink:href="#b"/><linearGradient id="e" x1="2.117" x2="4.498" y1="45.244" y2="45.244" gradientUnits="userSpaceOnUse" xlink:href="#c"/></defs><g transform="translate(0 -39.688)"><path fill="url(#d)" style="line-height:normal;font-variant-ligatures:normal;font-variant-position:normal;font-variant-caps:normal;font-variant-numeric:normal;font-variant-alternates:normal;font-feature-settings:normal;text-indent:0;text-align:start;text-decoration-line:none;text-decoration-style:solid;text-decoration-color:#000;text-transform:none;text-orientation:mixed;shape-padding:0;isolation:auto;mix-blend-mode:normal" d="m 0.9255249,40.216666 c -0.21761918,0 -0.39635551,0.178739 -0.39635824,0.396359 v 3.176032 c 2.73e-6,0.21762 0.17873906,0.396359 0.39635824,0.396359 h 4.7640502 c 0.2176192,0 0.3963556,-0.178739 0.3963582,-0.396359 v -3.176032 c -2.6e-6,-0.21762 -0.178739,-0.396359 -0.3963582,-0.396359 z" color="#000" font-family="sans-serif" font-weight="400" overflow="visible" paint-order="markers fill stroke"/><path fill="url(#e)" style="line-height:normal;font-variant-ligatures:normal;font-variant-position:normal;font-variant-caps:normal;font-variant-numeric:normal;font-variant-alternates:normal;font-feature-settings:normal;text-indent:0;text-align:start;text-decoration-line:none;text-decoration-style:solid;text-decoration-color:#000;text-transform:none;text-orientation:mixed;shape-padding:0;isolation:auto;mix-blend-mode:normal" d="m 2.7770915,44.715099 c -0.1763885,0 -0.3368132,0.08308 -0.4568197,0.203089 -0.1200065,0.120004 -0.2030884,0.282498 -0.2030884,0.458888 v 0.263548 a 0.13230489,0.13230489 0 0 0 0.1307414,0.132808 h 2.1171834 a 0.13230489,0.13230489 0 0 0 0.1328084,-0.132808 v -0.263548 c 0,-0.17639 -0.085149,-0.338884 -0.2051555,-0.458888 C 4.1727545,44.798183 4.01233,44.715099 3.8359416,44.715099 Z" color="#000" font-family="sans-serif" font-weight="400" overflow="visible" paint-order="markers fill stroke"/><path fill="url(#f)" style="line-height:normal;font-variant-ligatures:normal;font-variant-position:normal;font-variant-caps:normal;font-variant-numeric:normal;font-variant-alternates:normal;font-feature-settings:normal;text-indent:0;text-align:start;text-decoration-line:none;text-decoration-style:solid;text-decoration-color:#000;text-transform:none;text-orientation:mixed;shape-padding:0;isolation:auto;mix-blend-mode:normal" d="m 1.1895915,40.743248 a 0.13230489,0.13230489 0 0 0 -0.013953,0.0011 0.13230489,0.13230489 0 0 0 -0.1167887,0.134877 v 2.644283 a 0.13230489,0.13230489 0 0 0 0.1328083,0.132783 h 4.2322998 a 0.13230489,0.13230489 0 1 0 0,-0.263548 H 1.3223999 V 40.879159 A 0.13230489,0.13230489 0 0 0 1.1895915,40.743248 Z m 3.7041666,0.265102 a 0.13230489,0.13230489 0 0 0 -0.014986,0.0016 0.13230489,0.13230489 0 0 0 -0.078031,0.03876 L 4.1015586,41.749942 3.6659264,41.314311 a 0.13230489,0.13230489 0 0 0 -0.1989542,0.01394 l -0.7033165,0.937411 -0.4216796,-0.42168 a 0.13230489,0.13230489 0 0 0 -0.2030883,0.01913 l -0.5296835,0.793232 a 0.13244567,0.13244567 0 1 0 0.2206584,0.146246 l 0.4397664,-0.659908 0.4159954,0.415993 a 0.13230489,0.13230489 0 0 0 0.1989542,-0.01394 l 0.7012491,-0.937411 0.4221966,0.422196 a 0.13230489,0.13230489 0 0 0 0.1870687,0 l 0.7932332,-0.793232 a 0.13230489,0.13230489 0 0 0 -0.094568,-0.227893 z" color="#000" font-family="sans-serif" font-weight="400" overflow="visible"/></g></svg>